<?xml version="1.0" encoding="utf-8"?>
<!-- Generator: Adobe Illustrator 16.0.0, SVG Export Plug-In . SVG Version: 6.00 Build 0)  -->
<!DOCTYPE svg PUBLIC "-//W3C//DTD SVG 1.1//EN" "http://www.w3.org/Graphics/SVG/1.1/DTD/svg11.dtd">
<svg version="1.1" id="Capa_1" xmlns="http://www.w3.org/2000/svg" xmlns:xlink="http://www.w3.org/1999/xlink" x="0px" y="0px"
	 width="200.333px" height="183px" viewBox="0 0 200.333 183" enable-background="new 0 0 200.333 183" xml:space="preserve">
<g>
	<path fill="#5A5A5C" d="M11.331,130.203h-1.025l-7.42,17.105H4.46l2.225-5.291h7.734l2.085,5.291h1.711l-6.852-17.028
		L11.331,130.203z M13.988,140.862H7.177l3.563-8.436L13.988,140.862z"/>
	<path fill="#5A5A5C" d="M25.257,134.894c-1.665,0-2.593,1.338-3.131,2.26l-0.324-2h-1.157l0.013,0.135
		c0.015,0.162,0.039,0.345,0.064,0.548c0.07,0.557,0.158,1.25,0.158,2.1v9.373h1.386v-8.43c0.046-0.088,0.098-0.192,0.155-0.308
		c0.445-0.898,1.272-2.571,2.643-2.571c0.738,0,1.369,0.199,1.988,0.629l0.122,0.084l0.523-1.178l-0.1-0.054
		C26.845,135.069,26.146,134.894,25.257,134.894"/>
	<path fill="#5A5A5C" d="M34.893,145.866c-3.417-0.356-3.672-0.771-3.672-1.365c0-0.398,0.235-0.729,0.62-1.121
		c0.536,0.288,1.788,0.567,2.594,0.567c4.551,0,4.905-3.564,4.905-4.657c0-1.309-0.652-2.497-1.375-3.134h1.665l0.529-1.191
		l-0.197,0.008c-0.905,0.035-1.691,0.105-2.452,0.173c-0.343,0.032-0.674,0.061-0.997,0.086c-0.489-0.221-1.226-0.338-2.135-0.338
		c-3.858,0-4.878,2.928-4.878,4.476c0,1.898,0.911,2.833,1.399,3.335l0.022,0.023c-0.5,0.465-1.06,0.991-1.06,1.854
		c0,0.77,0.511,1.391,1.52,1.851c-1.029,0.316-2.521,1.147-2.521,2.631c0,2.273,1.877,3.38,5.739,3.38
		c3.471,0,5.628-1.335,5.63-3.485C40.23,147.208,38.534,146.226,34.893,145.866 M38.76,148.957c0,1.535-1.478,2.379-4.16,2.379
		c-2.833,0-4.271-0.765-4.271-2.273c0-0.838,0.781-1.83,2.526-2.169C37.019,147.23,38.76,147.593,38.76,148.957 M30.969,139.421
		c0-0.803,0.25-3.422,3.464-3.422c2.216,0,3.437,1.188,3.438,3.344c0,1.596-0.591,3.498-3.41,3.498
		C31.31,142.841,30.969,140.449,30.969,139.421"/>
	<path fill="#5A5A5C" d="M47.36,134.894c-2.479,0-5.127,1.695-5.127,6.453c0,3.953,1.889,6.221,5.184,6.221
		c1.568,0,3.091-0.327,4.528-0.974l0.102-0.046l-0.417-1.201l-0.124,0.062c-1.309,0.652-2.413,1.057-3.867,1.057
		c-2.6,0-3.879-1.592-3.909-4.865h8.759v-0.122C52.489,138.412,51.906,134.894,47.36,134.894 M51.132,140.497h-7.421
		c0.144-2.083,0.904-4.498,3.65-4.498C49.934,135.999,51.101,137.389,51.132,140.497"/>
	<path fill="#5A5A5C" d="M60.649,134.892c-2.101,0-3.179,1.307-3.711,1.977l-0.331-1.714h-1.149l0.007,0.13
		c0.024,0.43,0.069,0.774,0.112,1.108c0.056,0.439,0.11,0.854,0.11,1.411v9.502h1.385v-8.749c0.373-0.998,1.616-2.559,3.409-2.559
		c1.612,0,3.104,0.472,3.104,3.891v7.297h0.123v0.12h1.262v-7.626C64.971,136.458,63.557,134.892,60.649,134.892"/>
	<path fill="#5A5A5C" d="M70.447,144.319v-8.058h2.891v-1.104h-2.891v-2.971h-1.386v2.971h-1.918v1.104h1.918v8.058
		c0,2.253,1.425,3.597,4.356,4.107l0.106,0.018l0.38-1.225l-0.14-0.021C71.408,146.82,70.447,145.986,70.447,144.319"/>
	<rect x="76.095" y="135.154" fill="#5A5A5C" width="1.385" height="12.154"/>
	<rect x="75.984" y="130.204" fill="#5A5A5C" width="1.58" height="2.018"/>
	<path fill="#5A5A5C" d="M86.227,134.892c-2.101,0-3.18,1.307-3.711,1.978l-0.331-1.715h-1.149l0.007,0.13
		c0.024,0.429,0.069,0.773,0.112,1.107c0.057,0.439,0.111,0.854,0.111,1.412v9.502h1.385v-8.749c0.373-0.998,1.617-2.559,3.41-2.559
		c1.612,0,3.104,0.472,3.104,3.891v7.297h0.123v0.12h1.262v-7.626C90.548,136.458,89.135,134.892,86.227,134.892"/>
	<path fill="#5A5A5C" d="M103.317,146.271c-0.123-1.071-0.23-1.996-0.23-2.732v-4.689c0-2.548-1.494-3.952-4.209-3.952
		c-1.973,0-3.295,0.48-4.575,0.945l-0.124,0.045l0.52,1.171l0.113-0.052c1.16-0.528,2.345-1.004,4.093-1.004
		c1.909,0,2.798,0.946,2.798,2.978v0.971h-1.185c-4.867,0-6.852,1.19-6.852,4.109c0,2.589,2.462,3.509,4.572,3.509
		c1.528,0,2.864-0.592,3.637-1.598c0.053,0.185,0.125,0.393,0.195,0.597c0.088,0.246,0.176,0.502,0.189,0.625v0.118h1.176
		l-0.014-0.136C103.385,146.861,103.35,146.559,103.317,146.271 M101.731,141.082v3.574c-0.613,1.117-1.948,1.81-3.494,1.81
		c-1.943,0-3.104-0.909-3.104-2.432c0-1.87,0.944-2.952,5.773-2.952H101.731z"/>
	<path fill="#5A5A5C" d="M118.948,130.205h-4.764v17.105h1.523v-7.376h3.547c1.85,0,3.262-0.403,4.189-1.198
		c0.957-0.818,1.441-2.078,1.439-3.744C124.883,131.771,122.944,130.205,118.948,130.205 M123.303,134.989
		c0,2.724-1.158,3.736-4.271,3.736h-3.326v-7.312h3.188c1.555,0,2.6,0.236,3.291,0.742
		C122.936,132.708,123.303,133.636,123.303,134.989"/>
	<path fill="#5A5A5C" d="M132.571,134.894c-1.666,0-2.594,1.337-3.133,2.26l-0.322-2h-1.158l0.012,0.135
		c0.016,0.159,0.037,0.338,0.064,0.537c0.07,0.559,0.16,1.255,0.16,2.11v9.373h1.385v-8.43c0.047-0.089,0.1-0.193,0.156-0.31
		c0.443-0.898,1.273-2.569,2.643-2.569c0.736,0,1.369,0.199,1.988,0.629l0.121,0.086l0.521-1.18l-0.1-0.054
		C134.159,135.069,133.459,134.894,132.571,134.894"/>
	<path fill="#5A5A5C" d="M141.858,134.896c-3.537,0-5.406,2.169-5.406,6.272c0,4.247,1.818,6.4,5.406,6.4
		c1.93,0,3.359-0.636,4.25-1.892c0.748-1.055,1.129-2.572,1.129-4.509C147.237,137.005,145.426,134.896,141.858,134.896
		 M145.768,141.168c0,2.62-0.465,5.297-3.91,5.297c-2.688,0-3.938-1.683-3.938-5.297c0-2.357,0.684-5.168,3.938-5.168
		C144.526,136,145.768,137.643,145.768,141.168"/>
	<path fill="#5A5A5C" d="M159.692,143.537v-13.593h-1.385v6.807c-0.508-0.688-1.654-1.855-3.605-1.855
		c-2.982,0-4.988,2.521-4.988,6.272c0,4.082,1.791,6.354,5.045,6.4h0.057c1.555,0,2.926-0.808,3.637-1.623l0.299,1.254v0.109h1.178
		l-0.016-0.136C159.745,145.654,159.692,145.038,159.692,143.537 M158.364,144.57c-0.812,1.223-1.99,1.896-3.326,1.896
		c-2.594,0-3.855-1.716-3.855-5.245c0-3.365,1.289-5.221,3.631-5.221c2.318,0,3.293,1.949,3.547,2.586L158.364,144.57z"/>
	<path fill="#5A5A5C" d="M172.645,146.075c-0.057-0.439-0.111-0.855-0.111-1.415v-9.503h-1.385v8.75
		c-0.334,0.896-1.441,2.559-3.297,2.559c-2.506,0-3.02-1.556-3.02-3.891v-7.419h-1.385v7.627c0,3.22,1.34,4.785,4.098,4.785
		c2.26,0,3.217-1.272,3.732-1.957c0.004-0.004,0.006-0.009,0.01-0.013l0.309,1.599v0.112h1.17l-0.01-0.13
		C172.733,146.753,172.688,146.408,172.645,146.075"/>
	<path fill="#5A5A5C" d="M184.37,145.641c-1.119,0.541-2.5,0.823-3.283,0.823c-2.668,0-3.965-1.682-3.965-5.141
		c0-3.583,1.307-5.325,3.992-5.325c0.99,0,2.354,0.428,3.201,0.824l0.113,0.053l0.521-1.173l-0.123-0.045
		c-1-0.367-2.578-0.763-3.686-0.763c-3.643,0-5.49,2.163-5.49,6.429c0,4.085,1.871,6.245,5.408,6.245
		c1.014,0,2.871-0.328,3.832-0.769l0.111-0.049l-0.52-1.166L184.37,145.641z"/>
	<path fill="#5A5A5C" d="M197.448,141.478c0-3.065-0.584-6.584-5.129-6.584c-2.48,0-5.129,1.695-5.129,6.453
		c0,3.953,1.889,6.221,5.184,6.221c1.568,0,3.092-0.327,4.527-0.974l0.102-0.046l-0.418-1.201l-0.125,0.062
		c-1.307,0.652-2.41,1.057-3.863,1.057c-2.6,0-3.879-1.592-3.908-4.865h8.76V141.478z M196.088,140.497h-7.422
		c0.145-2.083,0.906-4.498,3.652-4.498C194.891,135.999,196.057,137.389,196.088,140.497"/>
	<path fill="#FFCE35" d="M132.938,57.791c-0.193-2.715-1.633-5.578-2.877-7.963c-1.225-2.345-2.703-4.558-4.402-6.587
		c-3.439-4.108-7.674-7.116-12.336-9.656c-2.664-1.451-6.012-2.182-8.982-2.632c-3.086-0.468-6.237-0.521-9.339-0.159
		c-5.74,0.669-11.302,2.781-16.016,6.127c-9.187,6.521-14.829,17.152-14.9,28.447c-0.061,9.543,4.578,18.692,12.297,24.3
		c8.396,6.099,19.689,7.36,29.229,3.253c1.297-0.558,2.553-1.208,3.756-1.944c-2.762,0.636-5.623,0.805-8.439,0.487
		c-1.253-0.141-2.495-0.378-3.712-0.708c-1.317-0.357-3.803-1.371-3.803-1.371s-3.956-1.128-5.87-2.039
		c-1.924-0.916-3.743-2.05-5.415-3.372c-6.625-5.237-10.645-13.304-10.811-21.749c-0.203-10.341,5.403-20.176,14.382-25.298
		c9.119-5.202,20.709-4.867,29.51,0.842c1.031,0.669,3.117,2.196,3.117,2.196s1.213,3.109,1.584,4.465
		c0.717,2.622,0.963,5.37,0.711,8.077c-0.557,5.978-3.465,11.568-8.061,15.438c3.824,3.457,9.537,4.14,14.049,1.625
		C130.692,67.295,133.45,62.513,132.938,57.791C132.917,57.47,132.971,58.089,132.938,57.791"/>
	<path fill="#F4A836" d="M118.459,46.506c0.352,0.257,0.693,0.524,1.031,0.798c-0.199-1.381-0.51-2.717-0.965-4.04
		c-0.279-0.811-1.109-2.643-1.109-2.643s-5.506-4.252-11.676-5.773c-6.986-1.722-14.562-0.266-20.642,3.585
		c-11.714,7.42-16.114,22.95-9.995,35.396c2.96,6.022,8.141,10.799,14.369,13.29c-8.721-6.091-12.681-17.316-9.668-27.53
		c2.681-9.093,10.569-16.061,19.932-17.568C106.288,40.966,113.1,42.586,118.459,46.506"/>
	<path fill="#248EC2" d="M116.764,59.548c0.17,0.011,0.936,0.094,0.936,0.094s0.461-1.04,0.57-1.326
		c0.473-1.22,0.834-2.483,1.078-3.769c0.209-1.103,0.336-2.223,0.377-3.344c0.021-0.63-0.084-2.793-0.084-2.793
		s-1.211-0.32-2.76-0.317c-1.174,0.002-2.361,0.106-3.518,0.306c-1.908,0.33-3.764,0.944-5.49,1.819
		c-6.85,3.472-11.766,11.484-10.629,19.287c0.715,4.908,4.418,9.062,9.249,10.243c-3.025-3.759-3.596-9.147-1.416-13.451
		C107.272,61.957,111.901,59.247,116.764,59.548"/>
	<path fill="#248EC2" d="M133.944,62.46c-0.055-0.475-0.121-0.949-0.195-1.422c-0.441,2.555-1.629,4.954-3.402,6.847
		c-0.332,0.354-0.684,0.695-1.053,1.01c-0.17,0.145-0.783,0.601-0.783,0.601s-0.016,0.42-0.055,0.888
		c-0.129,1.504-0.354,2.999-0.676,4.473c-1.205,5.509-3.801,10.66-7.482,14.929c-7.295,8.457-18.479,12.868-29.587,11.677
		c-6.183-0.662-12.127-3.045-17.067-6.819c8.967,7.69,21.374,10.611,32.833,7.733c10.158-2.553,18.906-9.54,23.689-18.853
		C133.485,77.056,134.792,69.676,133.944,62.46"/>
	<path fill="#37A7D9" d="M134.704,60.797c1.877,11.706-1.977,23.882-10.256,32.364c-7.162,7.337-17.203,11.434-27.446,11.294
		c-7.026-0.096-13.974-2.197-19.881-6.002c9.672,8.396,23.472,10.988,35.526,6.656c10.338-3.715,18.582-12.231,21.951-22.688
		C136.846,75.443,136.883,67.798,134.704,60.797"/>
</g>
</svg>
