<?xml version="1.0" encoding="utf-8"?>
<!-- Generator: Adobe Illustrator 16.0.0, SVG Export Plug-In . SVG Version: 6.00 Build 0)  -->
<!DOCTYPE svg PUBLIC "-//W3C//DTD SVG 1.1//EN" "http://www.w3.org/Graphics/SVG/1.1/DTD/svg11.dtd">
<svg version="1.1" id="Capa_1" xmlns="http://www.w3.org/2000/svg" xmlns:xlink="http://www.w3.org/1999/xlink" x="0px" y="0px"
	 width="236.971px" height="27.996px" viewBox="0 0 236.971 27.996" enable-background="new 0 0 236.971 27.996"
	 xml:space="preserve">
<g>
	<g>
		<g enable-background="new    ">
			<path fill="#FFFFFF" d="M50.886,21.688l-2.112-5.359h-8.001l-2.254,5.359h-1.323l7.409-17.08h0.873l6.874,17.08H50.886z
				 M44.969,6.404l-3.801,9.002h7.266L44.969,6.404z"/>
			<path fill="#FFFFFF" d="M61.557,10.891c-0.761-0.528-1.465-0.66-2.084-0.66c-1.663,0-2.537,2.219-2.958,3.01v8.446h-1.156v-9.372
				c0-1.187-0.168-2.086-0.225-2.693h0.93l0.367,2.269c0.536-0.949,1.465-2.533,3.239-2.533c0.79,0,1.493,0.132,2.311,0.58
				L61.557,10.891z"/>
			<path fill="#FFFFFF" d="M69.133,26.887c-4.168,0-5.69-1.267-5.69-3.299c0-1.531,1.718-2.402,2.816-2.64
				c-0.901-0.343-1.802-0.923-1.802-1.9c0-0.87,0.591-1.373,1.127-1.874c-0.422-0.447-1.492-1.373-1.492-3.405
				c0-1.399,0.873-4.409,4.816-4.409c0.958,0,1.689,0.132,2.141,0.343c1.042-0.077,2.169-0.211,3.521-0.264l-0.423,0.951h-1.972
				c0.762,0.5,1.634,1.768,1.634,3.299c0,2.323-1.267,4.593-4.845,4.593c-0.845,0-2.197-0.316-2.648-0.607
				c-0.394,0.394-0.731,0.791-0.731,1.293c0,0.767,0.536,1.162,3.832,1.505c4.281,0.424,5.296,1.664,5.296,3.01
				C74.71,25.777,72.203,26.887,69.133,26.887z M67.358,21.266c-1.802,0.344-2.675,1.398-2.675,2.322
				c0,1.398,1.125,2.428,4.45,2.428c3.014,0,4.337-1.056,4.337-2.533C73.47,21.979,71.612,21.607,67.358,21.266z M68.964,10.23
				c-2.76,0-3.634,1.875-3.634,3.59c0,1.925,1.014,3.589,3.663,3.589c2.646,0,3.576-1.665,3.576-3.669
				C72.57,11.498,71.273,10.23,68.964,10.23z"/>
			<path fill="#FFFFFF" d="M78.256,15.907c0,2.876,0.93,5.174,4.085,5.174c1.492,0,2.647-0.424,3.972-1.084l0.337,0.978
				c-1.465,0.658-3.013,0.976-4.534,0.976c-3.748,0-5.128-2.827-5.128-6.179c0-2.797,1.155-6.414,5.07-6.414
				c4.169,0,5.071,2.958,5.071,6.547h-8.874L78.256,15.907L78.256,15.907z M82.06,10.23c-2.479,0-3.662,1.902-3.831,4.806h7.776
				C86.002,11.869,84.876,10.23,82.06,10.23z"/>
			<path fill="#FFFFFF" d="M98.619,21.688v-7.392c0-2.191-0.451-4.065-3.268-4.065c-1.858,0-3.185,1.61-3.579,2.693v8.762h-1.153
				v-9.501c0-1.003-0.169-1.556-0.226-2.56h0.931l0.365,1.899c0.479-0.58,1.522-2.166,3.831-2.166c3.21,0,4.253,1.955,4.253,4.726
				v7.603h-1.154V21.688z"/>
			<path fill="#FFFFFF" d="M108.476,22.82c-2.874-0.5-4.311-1.769-4.311-4.037v-8.287h-1.943V9.625h1.943v-3.01h1.155v3.01h2.93
				v0.871h-2.93v8.287c0,1.719,0.986,2.641,3.466,3.037L108.476,22.82z"/>
			<path fill="#FFFFFF" d="M111.177,6.404V4.609h1.353v1.795H111.177z M111.29,21.688V9.624h1.153v12.063H111.29L111.29,21.688z"/>
			<path fill="#FFFFFF" d="M124.527,21.688v-7.392c0-2.191-0.45-4.065-3.268-4.065c-1.858,0-3.183,1.61-3.578,2.693v8.762h-1.154
				v-9.501c0-1.003-0.169-1.556-0.225-2.56h0.929l0.366,1.899c0.479-0.58,1.521-2.166,3.83-2.166c3.211,0,4.254,1.955,4.254,4.726
				v7.603h-1.155L124.527,21.688L124.527,21.688z"/>
			<path fill="#FFFFFF" d="M137.792,21.688c-0.027-0.289-0.396-1.109-0.452-1.531c-0.646,1.003-1.97,1.795-3.746,1.795
				c-2.253,0-4.507-1.002-4.507-3.432c0-2.455,1.353-4.039,6.815-4.039h1.325v-1.108c0-1.978-0.814-3.139-2.958-3.139
				c-1.773,0-2.985,0.477-4.196,1.028l-0.424-0.951c1.381-0.5,2.677-0.948,4.593-0.948c2.534,0,4.14,1.24,4.14,3.878v4.75
				c0,0.95,0.17,2.166,0.339,3.696H137.792L137.792,21.688L137.792,21.688z M137.256,15.379h-0.958
				c-4.562,0-5.972,0.896-5.972,3.115c0,1.531,1.127,2.588,3.269,2.588c1.663,0,3.043-0.766,3.663-1.926v-3.777H137.256z"/>
			<path fill="#FFFFFF" d="M154.885,14.217h-3.719v7.473h-1.294V4.61h4.702c3.718,0,5.889,1.295,5.889,4.726
				C160.464,12.686,158.549,14.217,154.885,14.217z M154.52,5.585h-3.354v7.655h3.494c2.959,0,4.448-0.847,4.448-3.909
				C159.111,6.404,157.478,5.585,154.52,5.585z"/>
			<path fill="#FFFFFF" d="M170.262,10.891c-0.759-0.528-1.465-0.66-2.084-0.66c-1.663,0-2.536,2.219-2.96,3.01v8.446h-1.154v-9.372
				c0-1.187-0.168-2.086-0.227-2.693h0.932l0.367,2.269c0.533-0.949,1.465-2.533,3.237-2.533c0.79,0,1.493,0.132,2.31,0.58
				L170.262,10.891z"/>
			<path fill="#FFFFFF" d="M177.781,21.95c-4.113,0-5.354-2.851-5.354-6.36c0-3.325,1.24-6.229,5.354-6.229
				c4.113,0,5.323,2.773,5.323,6.229C183.105,19.1,181.893,21.95,177.781,21.95z M177.781,10.23c-3.071,0-4.113,2.403-4.113,5.359
				s0.815,5.491,4.113,5.491c3.41,0,4.085-2.535,4.085-5.491S181.048,10.23,177.781,10.23z"/>
			<path fill="#FFFFFF" d="M195.017,21.688l-0.364-1.531c-0.704,0.949-2.198,1.795-3.746,1.795c0,0-0.025,0-0.059,0
				c-3.689-0.053-4.985-2.903-4.985-6.36c0-3.405,1.691-6.229,4.931-6.229c2,0,3.238,1.267,3.773,2.166V4.345h1.154v13.646
				c0,1.53,0.058,2.164,0.226,3.694h-0.93V21.688z M194.622,12.95c-0.28-0.712-1.296-2.718-3.718-2.718
				c-2.282,0-3.805,1.719-3.805,5.413c0,3.19,1.045,5.438,4.031,5.438c1.409,0,2.648-0.716,3.492-2.008L194.622,12.95L194.622,12.95
				z"/>
			<path fill="#FFFFFF" d="M208.028,21.688l-0.366-1.9c-0.479,0.58-1.352,2.164-3.857,2.164c-3.072,0-4.029-1.953-4.029-4.725V9.625
				h1.155v7.389c0,2.191,0.424,4.067,3.183,4.067c1.857,0,3.069-1.611,3.465-2.692V9.627h1.153v9.5c0,1.004,0.169,1.559,0.229,2.561
				H208.028L208.028,21.688L208.028,21.688z"/>
			<path fill="#FFFFFF" d="M217.491,21.95c-3.806,0-5.354-2.507-5.354-6.202c0-3.906,1.521-6.389,5.438-6.389
				c1.154,0,2.76,0.423,3.69,0.767l-0.423,0.951c-0.959-0.448-2.339-0.847-3.295-0.847c-3.212,0-4.168,2.429-4.168,5.517
				c0,2.827,0.873,5.333,4.139,5.333c0.873,0,2.282-0.316,3.381-0.848l0.422,0.951C220.335,21.633,218.477,21.95,217.491,21.95z"/>
			<path fill="#FFFFFF" d="M225.094,15.907c0,2.876,0.931,5.174,4.083,5.174c1.494,0,2.646-0.424,3.97-1.084l0.34,0.978
				c-1.465,0.658-3.013,0.976-4.534,0.976c-3.745,0-5.127-2.827-5.127-6.179c0-2.797,1.155-6.414,5.071-6.414
				c4.171,0,5.071,2.958,5.071,6.547h-8.874V15.907L225.094,15.907z M228.895,10.23c-2.478,0-3.661,1.902-3.83,4.806h7.775
				C232.838,11.869,231.712,10.23,228.895,10.23z"/>
		</g>
	</g>
	<path fill="#FFFFFF" d="M28.376,10.101c-0.068-0.957-0.575-1.965-1.013-2.803c-0.43-0.827-0.951-1.604-1.549-2.318
		c-1.211-1.446-2.701-2.505-4.342-3.399c-0.937-0.51-2.115-0.767-3.161-0.925c-1.087-0.165-2.196-0.184-3.288-0.056
		c-2.02,0.235-3.978,0.979-5.636,2.156C6.154,5.05,4.168,8.792,4.143,12.767c-0.021,3.358,1.611,6.58,4.328,8.551
		c2.955,2.148,6.93,2.592,10.287,1.146c0.457-0.197,0.898-0.426,1.322-0.685c-0.972,0.224-1.979,0.282-2.969,0.172
		c-0.441-0.05-0.879-0.135-1.307-0.25c-0.463-0.126-1.338-0.482-1.338-0.482s-0.785-0.379-1.406-0.806
		c0.006,0.001,0.013,0.005,0.019,0.008c-3.069-2.144-4.463-6.094-3.403-9.689c0.943-3.2,3.72-5.653,7.015-6.183
		c2.306-0.372,4.703,0.199,6.589,1.579c0.09,0.066,0.498,0.426,0.761,0.655c0.044,0.484,0.044,0.973,0,1.457
		c-0.196,2.104-1.219,4.072-2.837,5.434c1.346,1.217,3.357,1.457,4.945,0.571C27.585,13.445,28.556,11.763,28.376,10.101z
		 M23.094,8.152c-0.083,0.899-0.345,1.773-0.75,2.572c-1.583,0.031-3.052,0.945-3.774,2.371c-0.767,1.514-0.566,3.411,0.499,4.734
		c-1.7-0.416-3.003-1.879-3.254-3.606c-0.4-2.746,1.331-5.565,3.74-6.787c0.608-0.308,1.262-0.525,1.933-0.641
		c0.309-0.054,0.624-0.082,0.939-0.095c0.098,0.066,0.197,0.128,0.292,0.197c0.047,0.036,0.234,0.199,0.399,0.343
		C23.129,7.547,23.121,7.851,23.094,8.152z M28.96,18.769c-1.186,3.68-4.087,6.679-7.725,7.984c-4.14,1.487-8.862,0.655-12.251-2.13
		c-0.086-0.069-0.171-0.139-0.252-0.212c-0.294-0.265-0.699-0.77-0.863-1.279c-0.179-0.557,1.186,1.861,5.646,2.337
		c3.91,0.419,7.845-1.133,10.414-4.109c1.295-1.502,2.208-3.315,2.633-5.254c0.081-0.368,0.138-0.741,0.184-1.117
		c1.204-0.721,2.074-1.92,2.424-3.24c0.028,0.109,0.05,0.197,0.054,0.229l-0.001,0.001C29.75,14.212,29.664,16.583,28.96,18.769z"/>
</g>
</svg>
