<?xml version="1.0" encoding="utf-8"?>
<!-- Generator: Adobe Illustrator 15.0.2, SVG Export Plug-In . SVG Version: 6.00 Build 0)  -->
<!DOCTYPE svg PUBLIC "-//W3C//DTD SVG 1.1//EN" "http://www.w3.org/Graphics/SVG/1.1/DTD/svg11.dtd">
<svg version="1.1" id="Capa_1" xmlns="http://www.w3.org/2000/svg" xmlns:xlink="http://www.w3.org/1999/xlink" x="0px" y="0px"
	 width="800.33px" height="731.086px" viewBox="-299.999 -274.043 800.33 731.086"
	 enable-background="new -299.999 -274.043 800.33 731.086" xml:space="preserve">
<path opacity="0.47" fill="none" stroke="#D9F6FF" stroke-linecap="round" stroke-linejoin="round" stroke-miterlimit="10" d="
	M168.024,406.557c-34.706,7.622-66.212,11.313-96.27,11.313c-84.146,0-157.137-30.296-222.543-92.534
	c57.255,70.634,146.342,110.726,247.78,110.726c66.386,0.023,132.379-17.938,185.789-50.509
	C354.792,339.427,466.894,232.17,423.69,26.57C432.2,242.632,348.456,367.001,168.024,406.557z"/>
<path opacity="0.47" fill="none" stroke="#D9F6FF" stroke-linecap="round" stroke-linejoin="round" stroke-miterlimit="10" d="
	M183.976-147.158c21.196,3.328,76.359,12.005,99.359,46.668c-3.14-25.319-12.519-49.459-27.907-71.783
	c-27.054-39.29-79.572-61.823-144.068-61.823c-97.221,0-222.968,54.425-269.31,173.939
	C-204.297,84.107-113.176,185.451-12.425,232.17c1.417,0.7,2.812,1.397,4.159,2.056c-33.632-28.94-58.611-69.901-74.335-121.926
	C-102.342,46.966-94.062-12.775-58.673-60.436c41.254-55.55,117.601-90.065,199.272-90.065
	C155.215-150.504,169.823-149.377,183.976-147.158z"/>
<path opacity="0.47" fill="none" stroke="#D9F6FF" stroke-linecap="round" stroke-linejoin="round" stroke-miterlimit="10" d="
	M413.86-8.616c-1.264-2.857-2.963-6.554-4.464-9.612c1.114,30.753-4.219,59.428-14.861,79.481
	c-11.102,20.91-27.509,31.961-47.441,31.961c-1.704,0-3.519-0.106-5.44-0.317c11.087,26.868,14.218,57.236,8.521,83.704
	c-19.727,91.604-116.337,195.591-275.993,213.488c-57.836,6.496-129.177-7.768-187.765-44.158
	c42.069,34.407,94.75,63.188,179.281,63.188c30.424,0,64.244-3.809,100.52-11.323C348.842,359.935,429.853,226.998,413.86-8.616z"/>
<path opacity="0.47" fill="none" stroke="#D9F6FF" stroke-linecap="round" stroke-linejoin="round" stroke-miterlimit="10" d="
	M260.795,20.997c14.386-32.848,22.317-63.987,23.589-92.583l-0.038-0.232c-0.59-6.138-2.217-12.011-4.847-17.491
	c-12.76-1.619-26.085-2.438-39.645-2.438C134.336-91.713,69.038-15.715,69.038,54.688c0.007,45.143,29.404,95.38,111.259,103.664
	c-18.574-12.204-32.08-34.641-35.051-59.018c-3.521-28.911,7.435-63.861,48.732-75.285
	C217.652,17.496,240.032,16.366,260.795,20.997z"/>
<path opacity="0.47" fill="none" stroke="#D9F6FF" stroke-linecap="round" stroke-linejoin="round" stroke-miterlimit="10" d="
	M398.072-43.121v-0.008l-0.298-0.67c-3.576-22.316-10.302-41.254-19.443-54.794C294.23-227.557,186.813-256.651,99.544-256.651
	c-61.983,0-129.6,25.625-184.999,58.184C-153.318-156.38-201.271-87.694-226.605-12.191c-13.102,44.63-15.649,91.267-7.346,134.804
	c12.901,67.693,50.275,124.162,108.063,163.309c45.092,30.549,95.673,46.041,150.364,46.041c82.039,0,150.133-34.22,175.591-51.263
	c-13.889,1.784-28.397,2.695-43.144,2.695c-62.55,0-122.424-14.869-173.063-42.998c-171.284-84.82-176.921-209.604-151.47-299.345
	c32.25-113.74,170.745-184.139,280.555-184.139c9.494,0,18.77,0.54,27.547,1.612c60.179,7.294,103.835,30.881,129.813,70.116
	c12.993,19.611,20.791,42.02,23.184,66.606c0.138,1.713,0.283,3.422,0.387,5.122l0.088,0.993c0.072,1.051,0.13,2.1,0.168,3.091
	c2.056,40.643-6.821,84.788-23.11,115.198c-1.688,3.164-4.191,9.275-5.692,12.909c-0.353,0.842-0.628,1.56-0.877,2.102
	c23.915,24.511,45.59,40.132,64.47,46.408c3.706,1.376,7.427,2.259,11.094,2.588c2.875,0.419,5.092,0.607,7.067,0.607
	c16.645,0,29.959-9.149,39.541-27.212C399.465,32.908,404.25-9.15,398.072-43.121z"/>
</svg>
