<?xml version="1.0" encoding="utf-8"?>
<!-- Generator: Adobe Illustrator 16.0.0, SVG Export Plug-In . SVG Version: 6.00 Build 0)  -->
<!DOCTYPE svg PUBLIC "-//W3C//DTD SVG 1.1//EN" "http://www.w3.org/Graphics/SVG/1.1/DTD/svg11.dtd">
<svg version="1.1" id="Capa_1" xmlns="http://www.w3.org/2000/svg" xmlns:xlink="http://www.w3.org/1999/xlink" x="0px" y="0px"
	 width="220.337px" height="124.84px" viewBox="0 0 220.337 124.84" style="enable-background:new 0 0 220.337 124.84;"
	 xml:space="preserve">
<path style="fill:#FFFFFF;" d="M67.935,59.797C69.431,61.043,66.436,58.551,67.935,59.797L67.935,59.797z M50.543,30.292
	c3.668,0,6.73-3.063,6.73-6.73c0-3.667-3.062-6.731-6.73-6.731c-3.669,0-6.73,3.063-6.73,6.731
	C43.813,27.228,46.875,30.292,50.543,30.292z M87.451,39.496c-0.005,0.015-0.01,0.03-0.016,0.045
	c0.011-0.027,0.021-0.054,0.032-0.081C87.462,39.472,87.456,39.484,87.451,39.496z M218.025,33.998
	c-0.592,2.865-1.109,4.202-2.659,6.703c-1.409,2.271-3.916,4.419-6.533,5.128c-2.493,0.675-5.015-0.544-6.641-2.408
	c-1.988,2.395-4.538,3.434-7.657,3.067c-2.783-0.327-5.028-2.291-6.502-4.597c-0.808,0.945-1.751,1.773-2.872,2.427
	c-8.453,4.935-11.284-7.575-11.927-13.312c-1.485,2.297-1.886,5.496-2.214,8.154c-0.205,1.658-0.324,1.853-0.285,3.524
	c0.016,0.661,0.059,1.322,0.138,1.977c0.093,0.776-1.199,1.509-1.876,1.594c-2.341,0.293-5.667,0.951-7.388-0.99
	c0.039-0.762,0.01-1.833-0.06-3.061c-4.176,5.345-11.987,3.77-15.517-1.458c-1.098,2.368-2.693,4.526-5.086,5.384
	c-7.703,2.762-8.854-10.738-9.666-15.305c-1.28,3.136-1.526,6.876-1.646,10.225c-0.066,1.809-0.031,3.631,0.146,5.432
	c0.029,0.307,0.066,0.613,0.107,0.918c-1.085,1.027-5.796,2.576-8.187,2.228c-0.028-1.839-0.056-5.948,0.047-7.786
	c0.209-3.874,0.187-7.585-0.356-11.453c-1.717,3.339-2.322,7.286-2.688,10.984c-0.183,1.832-0.247,3.671-0.192,5.512
	c0.027,0.854,0.078,1.71,0.17,2.56c0.047,0.43,0.107,0.86,0.183,1.285c-0.481,0.223-0.971,0.427-1.468,0.607
	c-1.61,0.581-3.314,0.86-5.027,0.798c-0.842-0.031-1.694-0.133-2.499-0.398c-0.419-0.138-0.824-0.321-1.198-0.557
	c-0.522-0.329-0.309-0.638-0.277-1.202c0.044-0.764-0.007-1.802-0.112-2.986c-0.084,0.184-0.164,0.368-0.252,0.55
	c-2.191,4.486-8.568,11.653-13.448,6.218c-1.875,2.931-4.55,5.179-8.214,5.179c-2.693,0-4.791-1.921-6.125-4.152
	c-0.918,1.578-2.012,3.042-3.416,4.227c-1.268,1.07-2.77,1.868-4.21,2.68c-1.748-0.026-3.356-0.794-4.682-1.899
	c-1.465-1.218-2.759-2.636-3.816-4.221c-1.107,2.662-2.829,5.592-5.393,7.073c-2.566,1.48-5.827,1.707-8.396,0.137
	c-5.666-3.459-5.358-11.633-5.427-17.383c-0.018-1.517-0.008-3.034-0.07-4.549c-0.039-0.985,0.193-1.192,0.955-1.822
	c0.594-0.492,1.233-0.926,1.907-1.302c2.75-1.54,7.892-2.555,8.606-2.38c1.268,0.31,0.456,13.813-0.326,20.723
	c5.496-3.258,6.729-10.038,6.296-15.957c-0.556,0.038-1.513,0.304-1.98-0.074c-0.591-0.478-0.902-1.254-1.127-1.956
	c-0.554-1.725-1.171-3.81-1.115-5.64c1.525-1.237,3.58-1.865,5.323-2.722c-0.002-2.183,0.039-4.365,0.061-6.549
	c0.02-2.113,0.029-4.233-0.05-6.346c-0.018-0.468-0.04-0.937-0.069-1.403c0.383-0.331,0.8-0.623,1.245-0.863
	c1.008-0.543,2.152-0.791,3.293-0.792c1.737-0.001,3.601,0.559,4.946,1.686c0.943,0.787,1.021,1.378,0.857,2.538
	c-0.187,1.313-0.358,2.631-0.514,3.95c-0.171,1.463-0.393,2.94-0.41,4.415c-0.013,1.001,0.249,0.764,1.199,0.634
	c1.205-0.167,2.417-0.295,3.633-0.328c0.806-0.021,4.044-0.169,4.104,0.975c0.073,1.431-0.228,2.86-0.879,4.137
	c-1.505,2.958-4.548,4.81-7.566,5.929c-0.392,0.145-1.393,0.209-1.401,0.683c-0.01,0.487-0.016,0.976-0.024,1.462
	c-0.02,1.716-0.031,3.432,0.019,5.147c0.076,2.689,0.314,5.38,0.762,8.034c3.214-0.778,4.606-5.733,5.543-8.579
	c0.329-4.595,2.048-9.18,4.499-12.913c1.823-2.771,4.312-5.567,7.535-6.672c1.547-0.531,3.721,0.798,5.161,1.46
	c1.594,0.733,3.13,1.579,4.494,2.691c0.646,0.53,1.254,1.107,1.818,1.727c0.504,0.553,0.315,1.188,0.264,1.91
	c-0.134,1.824-0.354,3.643-0.624,5.451c-0.54,3.652-1.109,7.449-2.365,10.935c2.769-1.898,4.595-5.594,5.762-8.605
	c0.903-2.337,1.823-4.815,2.377-7.284c0.013-0.05,0.021-0.099,0.035-0.15c0.085-0.392,0.159-0.783,0.225-1.173
	c0.578-4.083-1.021-7.661-0.451-8.103c1.333-1.034,3.521-2.234,5.141-2.703c0.812-0.235,1.645-0.407,2.479-0.536
	c0.864-0.134,0.73,0.502,0.864,1.27c0.277,1.578,0.249,3.222,0.224,4.816c-0.051,3.135-0.34,6.271-0.628,9.391
	c0.424-3.2,1.095-6.374,2.349-9.361c0.827-1.978,1.997-5.067,4.498-5.025c2.539,0.043,3.758,1.034,4.446,3.469
	c0.866,3.059,0.828,6.401,0.703,9.548c0.295-3.074,0.847-6.729,2.53-9.398c1.129-1.792,3.795-2.673,5.791-2.89
	c0.521-0.056,1.538-0.179,1.903,0.335c1.084,1.524,1.561,3.3,1.721,5.145c0.323,3.693-0.459,7.435,0.206,11.106
	c2.202-2.631,3.464-6.002,4.577-9.379c-0.001-0.502-0.001-1.003-0.004-1.501c-0.002-0.854,0.008-1.71-0.005-2.566
	c-0.016-1.081-0.337-1.741,0.671-2.321c1.588-0.914,3.402-1.328,5.202-1.584c1.838-0.26,3.69-0.274,5.537-0.062
	c0.891,0.104,0.657,1.449,0.707,2.25c0.069,1.102,0.097,2.207,0.083,3.31c-0.045,4.026-0.566,8.078-1.133,12.059
	c1.627-0.26,3.417-2.104,4.168-3.35c0.955-1.587,1.689-3.893,1.859-6.038c0.177-3.298-2.348-6.217-0.327-9.24
	c1.457-2.181,7.521-3.301,7.808-2.365c0.395,1.308,0.524,2.761,0.649,4.115c0.285,3.145,0.483,6.362,0.143,9.509
	c0.601-3.154,1.902-6.138,3.656-8.816c0.554-0.846,0.983-1.806,2.063-1.958c1.077-0.152,2.258,0.034,3.273,0.409
	c2.714,1.004,3.729,4.469,3.781,7.077c0.068,3.527-1.306,6.952-0.603,10.482c2.074-1.363,3.463-3.405,4.538-5.692
	c0.094-3.916,1.522-7.827,3.974-10.914c1.889-2.377,4.552-4.473,7.648-4.86c1.647-0.207,3.417,1.177,4.811,1.994
	c1.427,0.835,2.827,1.732,4.104,2.786c0.785,0.649,2.961,2.192,2.937,3.26c-0.037,1.586-0.228,3.175-0.454,4.745
	c-0.467,3.285-0.986,6.819-2.313,9.885c2.587-1.069,4.101-4.025,5.21-6.425c1.381-3.002,1.825-8.326,3.036-8.569
	C216.838,24.704,218.632,31.047,218.025,33.998z M92.646,33.389c-2.527,1.19-4.182,3.529-5.179,6.072
	c0.285-0.735,0.558-1.436-0.016,0.035c-0.567,1.46-0.299,0.775-0.016,0.045c-1.432,3.723-1.288,7.957-0.809,11.847
	c2.69-1.397,3.992-4.712,4.752-7.471C92.324,40.511,92.678,36.918,92.646,33.389z M200.037,25.335
	c-2.347,0.521-4.062,2.187-5.072,4.318c0.281-0.591,0.552-1.17-0.006,0.014c-0.555,1.178-0.285,0.607-0.008,0.019
	c-1.458,3.113-1.191,6.892-0.708,10.192C199.618,38.419,200.137,29.746,200.037,25.335z M194.959,29.667
	c-0.003,0.005-0.004,0.013-0.008,0.019c0.004-0.011,0.011-0.021,0.014-0.032C194.964,29.658,194.962,29.662,194.959,29.667z
	 M107.331,60.425c-7.26,6.237-12.042,31.458-13.436,40.873c-10.024-30.271-6.497-36.628-8.507-36.734
	c-1.889-0.098-9.308,6.468-13.213,12.219c-1.212,1.901,14.601,33.96,17.824,36.818c2.134,1.893,10.908-2.11,11.197-5.009
	c3.098-31.159,11.964-35.838,11.953-38.159C113.142,69.564,108.458,59.457,107.331,60.425z M38.104,23.627
	c-7.707,6.62-11.31,33.461-12.789,43.454c-10.639-32.13-6.896-38.878-9.029-38.99c-2.004-0.105-9.881,6.865-14.026,12.97
	c-1.285,2.016,16.27,37.608,19.693,40.642c2.267,2.01,10.806-3.802,11.113-6.878C36.353,41.75,44.84,37.194,44.829,34.73
	C44.824,33.807,39.298,22.6,38.104,23.627z M146.572,70.838c0.436-6.327,0-12.594-1.076-18.837c-0.108-0.63-0.234-1.241-0.486-1.833
	c0.418-0.311,0.886-0.553,1.368-0.751c1.397-0.574,2.938-0.83,4.439-0.936c1.645-0.118,3.312-0.042,4.93,0.295
	c0.657,0.136,1.3,0.351,1.899,0.654c0.975,0.497,0.788,0.792,0.649,1.792c-1.699,12.436-5.295,24.742-4.592,37.408
	c2.097-2.178,3.61-4.682,4.889-7.32c0.389-4.192,2.198-8.317,4.873-11.488c2.088-2.479,4.927-4.663,8.216-5.126
	c1.601-0.225,3.308,1.043,4.686,1.808c1.354,0.751,2.696,1.557,3.926,2.502c1.267,0.972,2.419,2.088,3.423,3.328
	c-0.114,1.564-0.417,3.122-0.737,4.655c-0.748,3.59-1.591,7.43-3.232,10.734c2.756-1.227,4.853-4.178,6.239-6.715
	c1.67-3.061,1.998-9.377,3.25-9.33c0.941,0.035,4.617,3.506,3.41,9.609c-1.878,9.515-13.337,14.901-17.51,10.075
	c-2.113,2.49-4.735,3.892-8.07,3.77c-2.71-0.101-4.895-1.844-6.324-4.041c-1.184,1.594-2.681,2.982-4.588,3.489
	c-3.051,0.811-4.77-1.104-6.635-3.171c-0.843,2.338-2.151,4.631-4.108,6.21c-2.081,1.68-5.023,1.017-7.276-0.07
	c-1.913-0.924-3.574-2.353-4.844-4.058c-0.051,0.084-0.092,0.172-0.142,0.256c-1.89,3.134-4.773,5.066-8.502,5.214
	c-3.952,0.159-7.032-2.587-8.539-6.045c-1.602-3.673-1.551-7.846-1.643-11.78c-0.025-1.04-0.032-2.083-0.066-3.121
	c-0.035-1.122-0.371-1.902,0.567-2.624c1.541-1.182,3.354-1.892,5.208-2.41c1.79-0.501,3.627-0.767,5.482-0.783
	c0.739-0.007,1.048-0.264,1.13,0.574c0.055,0.562,0.101,1.125,0.137,1.687c0.072,1.14,0.108,2.281,0.106,3.423
	c-0.009,4.61-0.552,9.25-1.125,13.82c1.651-0.509,2.736-3.375,3.47-4.749c0.703-1.317,1.277-2.711,1.781-4.131
	c0.4-4.189,1.719-8.333,4.247-11.728c1.33-1.783,2.984-3.307,4.873-4.479C142.375,66.95,145.451,69.037,146.572,70.838z
	 M146.041,74.756c-3.351,1.842-5.381,5.59-6.175,9.225c-0.438,2.02-0.553,4.158-0.11,6.189c0.182,0.833,0.208,1.883,1.198,1.413
	c0.892-0.424,1.545-1.227,2.048-2.055c-0.191,0.318-0.362,0.603,0.021-0.035c0.384-0.642,0.207-0.345,0.015-0.026
	C145.523,85.297,146.448,79.554,146.041,74.756z M168.39,77.534c-1.652,3.235-1.62,7.183-1.28,10.708
	c5.547-1.896,6.711-10.528,6.883-15.464c-2.533,0.637-4.425,2.456-5.594,4.74c0.325-0.636,0.647-1.266-0.006,0.007
	C167.746,78.794,168.064,78.168,168.39,77.534z M143.022,89.494c0.005-0.008,0.011-0.017,0.015-0.026
	c-0.013,0.021-0.025,0.04-0.035,0.061C143.008,89.516,143.015,89.506,143.022,89.494z M168.393,77.525
	c0,0.002-0.001,0.006-0.003,0.009c0.003-0.004,0.005-0.011,0.009-0.016C168.396,77.521,168.395,77.523,168.393,77.525z
	 M199.063,101.409c-21.386-1.584-58.102-0.054-82.145,7.095c-3.206,0.952-5.397,19.5,0.588,14.698
	c15.89-12.749,54.951-18.045,67.829-18.272C202.23,104.631,200.558,101.52,199.063,101.409z M150.35,19.134
	c4.984,0,9.145-4.161,9.145-9.145c0-4.983-4.161-9.144-9.145-9.144c-4.983,0-9.144,4.161-9.144,9.144
	C141.206,14.974,145.366,19.134,150.35,19.134z M120.903,54.188c-3.872,0-7.102,3.232-7.102,7.102c0,3.871,3.23,7.102,7.102,7.102
	c3.871,0,7.101-3.231,7.101-7.102C128.004,57.419,124.774,54.188,120.903,54.188z M196.808,95.994c-2.227,0-4.037-1.81-4.037-4.036
	c0-2.227,1.81-4.036,4.037-4.036c2.225,0,4.036,1.81,4.036,4.036C200.844,94.185,199.033,95.994,196.808,95.994z M196.808,88.547
	c-1.88,0-3.412,1.53-3.412,3.411c0,1.88,1.532,3.411,3.412,3.411c1.881,0,3.412-1.531,3.412-3.411
	C200.22,90.078,198.689,88.547,196.808,88.547z M196.967,92.452h-0.828v1.645h-0.744V89.82h1.505c0.494,0,0.875,0.109,1.144,0.332
	c0.268,0.221,0.401,0.542,0.401,0.96c0,0.288-0.068,0.526-0.207,0.719c-0.138,0.193-0.331,0.341-0.578,0.447l0.961,1.781v0.038
	h-0.796L196.967,92.452z M196.139,91.853h0.764c0.25,0,0.446-0.063,0.587-0.19c0.14-0.125,0.211-0.299,0.211-0.518
	c0-0.23-0.064-0.406-0.195-0.533c-0.13-0.125-0.324-0.189-0.583-0.193h-0.784V91.853z"/>
</svg>
